Coordinates
version=1
nRows=17
nColumns=36
inDegrees=yes

Units are S.I. units (second, meters, Newtons, ...)
If the header above contains a line with 'inDegrees', this indicates whether rotational values are in degrees (yes) or radians (no).

endheader
time	pelvis_tilt	pelvis_list	pelvis_rotation	pelvis_tx	pelvis_ty	pelvis_tz	hip_flexion_r	hip_adduction_r	hip_rotation_r	knee_angle_r	knee_angle_r_beta	ankle_angle_r	subtalar_angle_r	mtp_angle_r	hip_flexion_l	hip_adduction_l	hip_rotation_l	knee_angle_l	knee_angle_l_beta	ankle_angle_l	subtalar_angle_l	mtp_angle_l	lumbar_extension	lumbar_bending	lumbar_rotation	arm_flex_r	arm_add_r	arm_rot_r	elbow_flex_r	pro_sup_r	arm_flex_l	arm_add_l	arm_rot_l	elbow_flex_l	pro_sup_l
      3.88333330	     18.81722570	      0.08251188	      3.09539354	      0.06118940	      0.64379470	     -0.08611344	     52.16931065	     -3.53214358	      2.12639226	     83.35750896	      1.45486299	     11.30023453	    -20.00316559	     -7.49999987	     53.02032918	     -4.68254432	      5.44006945	     82.54380757	      1.44066122	     12.70227168	     -6.90561103	     -7.49999987	    -36.94797907	      0.74816284	     -3.20590980	     15.32657448	    -10.90602638	     10.96054136	     31.62736296	     88.60722127	     12.29102665	     -8.95438878	      0.20852435	     30.68303278	     74.05701680
      3.90000000	     19.14378346	      0.07152559	      3.19400505	      0.05915586	      0.64553093	     -0.08630562	     51.80462871	     -3.57251217	      2.03580042	     83.25097865	      1.45300368	     11.19094718	    -19.91048417	     -7.49999987	     52.68596513	     -4.61358783	      5.50782040	     82.37954563	      1.43779431	     12.72378217	     -6.83070707	     -7.49999987	    -36.96575644	      0.72008209	     -3.18125691	     15.12881341	    -10.92518239	     10.95764997	     31.71317761	     87.93711533	     12.09341494	     -8.94442724	      0.30359773	     30.86375083	     73.56766292
      3.91666670	     19.42488170	      0.07913903	      3.20926132	      0.05856383	      0.64510857	     -0.08771705	     51.58929866	     -3.70478628	      2.01331726	     83.22691856	      1.45258376	     11.17941797	    -19.71862104	     -7.49999987	     52.39157768	     -4.52077365	      5.51701054	     82.25328580	      1.43559066	     12.79129279	     -6.85818677	     -7.49999987	    -36.84178262	      0.73085363	     -3.10794139	     14.82189085	    -11.09999378	     10.97074154	     32.14594822	     86.98215052	     11.65580711	     -8.98355964	      0.36151682	     31.35178264	     72.96468602
      3.93333330	     19.94429642	      0.14991626	      3.16984689	      0.05852906	      0.64578997	     -0.09044445	     50.90830099	     -3.88667890	      2.07247892	     83.07986085	      1.45001711	     11.21437753	    -19.66487256	     -7.49999987	     51.71125025	     -4.28766880	      5.50398238	     82.21056662	      1.43484507	     12.84080040	     -6.83395899	     -7.49999987	    -36.84788355	      0.77386181	     -3.06571203	     15.05505275	    -11.06652610	     11.16196263	     31.47142165	     86.68030205	     11.59468751	     -8.86977622	      0.53960535	     30.77156908	     72.62538183
      3.95000000	     20.26531147	      0.23961134	      3.08232570	      0.05708208	      0.64610335	     -0.09006839	     50.60812404	     -3.95108435	      2.25008915	     83.08982830	      1.45019108	     11.16279702	    -19.69037599	     -7.49999987	     51.33447739	     -4.09194652	      5.47073279	     82.15962759	      1.43395601	     12.76486403	     -6.98112588	     -7.49999987	    -36.76156684	      0.77525835	     -3.05214318	     15.03263080	    -11.14527906	     11.37008696	     31.38418122	     86.06274717	     11.22965461	     -8.86042542	      0.69906771	     30.72331305	     72.10012779
      3.96666670	     20.59572389	      0.28072708	      3.11166441	      0.05506361	      0.64562686	     -0.08903810	     50.33483807	     -4.02236238	      2.22598252	     82.97377799	      1.44816562	     11.21929037	    -19.71050461	     -7.49999987	     51.05507042	     -3.93865692	      5.52287356	     82.09554246	      1.43283752	     12.78992099	     -7.12140576	     -7.49999987	    -36.72426488	      0.80782209	     -3.07225248	     14.94176744	    -11.22669541	     11.59581995	     31.28968387	     85.89952860	     10.98730006	     -8.83687618	      0.83457778	     30.73729610	     71.86716867
      3.98333330	     20.99724191	      0.28391129	      3.28107453	      0.05134515	      0.64778158	     -0.08711806	     49.77355091	     -3.93498385	      2.05719329	     82.55836452	      1.44091529	     11.07417194	    -19.98289679	     -7.49999987	     50.73604298	     -3.83887065	      5.76888771	     81.89145011	      1.42927543	     12.36119376	     -7.30503823	     -7.49999987	    -37.05477861	      0.82045692	     -3.07991556	     14.89544841	    -11.15503802	     11.75149227	     31.44406698	     85.51767648	     10.83382028	     -8.98143499	      1.00655613	     30.83645263	     71.44512016
      4.00000000	     21.19400014	      0.26846573	      3.27617584	      0.05346636	      0.64775595	     -0.09181930	     49.51404447	     -4.01767203	      2.22561199	     82.38817339	      1.43794489	     11.09622492	    -19.81866742	     -7.49999987	     50.51362503	     -3.74689271	      5.75904886	     81.89417351	      1.42932297	     12.17507415	     -7.32775900	     -7.49999987	    -36.78079297	      0.90106769	     -3.06549048	     14.77983841	    -11.20447339	     11.79648858	     31.37384029	     85.57488537	     10.50108272	     -8.89804374	      1.06432073	     30.71561765	     71.45156663
      4.01666670	     21.74665193	      0.28178123	      3.42306428	      0.05227386	      0.64774910	     -0.09130383	     48.85667019	     -4.15174118	      2.23823461	     82.31594697	      1.43668430	     11.38904304	    -19.38560675	     -7.49999987	     49.90037597	     -3.53740801	      5.85180414	     81.91505828	      1.42968747	     11.77791091	     -7.97828951	     -7.49999987	    -37.11814686	      1.04786089	     -3.26988486	     15.03781952	    -11.14295199	     12.11694597	     30.97694351	     85.84644097	     10.44763820	     -8.92196438	      1.26533623	     30.21767101	     71.45689547
      4.03333330	     22.09682907	      0.27072863	      3.52109860	      0.05347598	      0.64817410	     -0.09150651	     48.38819372	     -4.17201744	      2.25106004	     82.38514775	      1.43789208	     11.29680894	    -19.32858938	     -7.49999987	     49.51308440	     -3.39265830	      5.93352239	     81.86168132	      1.42875587	     11.72024066	     -8.30426650	     -7.49999987	    -37.10206882	      1.11103575	     -3.23362106	     14.92171879	    -11.18986563	     12.27521029	     30.93348462	     85.35649007	     10.13053053	     -8.85036838	      1.33123150	     30.10683583	     71.07224034
      4.05000000	     22.26652009	      0.28491867	      3.59690394	      0.04952830	      0.64850263	     -0.09059851	     48.25245927	     -4.10952724	      2.28716603	     82.30185621	      1.43643837	     11.34046025	    -19.31632094	     -7.49999987	     49.39831547	     -3.27338553	      6.04433047	     81.90071140	      1.42943707	     11.74693664	     -8.32514310	     -7.49999987	    -37.03014896	      1.05903027	     -3.19446179	     14.76955359	    -11.18636404	     12.32773251	     30.86941899	     85.40614968	      9.90969398	     -8.89784858	      1.35341954	     30.00181960	     71.06695643
      4.06666670	     22.77075622	      0.26430492	      3.63294260	      0.05164948	      0.64670128	     -0.09206722	     47.81133959	     -4.17859435	      2.15390795	     82.50106697	      1.43991525	     11.78326763	    -18.99217685	     -7.49999987	     48.96805756	     -3.18552032	      6.17228866	     81.96612581	      1.43057877	     12.06905581	     -8.27716938	     -7.49999987	    -37.23231244	      1.16935417	     -3.26525753	     14.87065042	    -11.19387145	     12.52848704	     30.69675861	     85.31993652	      9.72293901	     -8.85347059	      1.48223058	     29.53540370	     70.81191926
      4.08333330	     22.80372772	      0.27744562	      3.63695848	      0.05121646	      0.64523851	     -0.09319053	     47.96166338	     -4.27694520	      2.14108981	     82.80097327	      1.44514961	     12.05582729	    -18.82222853	     -7.49999987	     49.13757926	     -3.07630261	      6.11968611	     82.15709708	      1.43391185	     12.23436720	     -8.31886175	     -7.49999987	    -37.08177005	      1.17341210	     -3.21892007	     14.52596796	    -11.35888901	     12.53560899	     31.28947519	     84.63124900	      9.21887780	     -8.84407139	      1.51295010	     30.07746042	     70.43426855
      4.10000000	     23.04563368	      0.27344013	      3.78811664	      0.04919903	      0.64680362	     -0.09184083	     47.70054099	     -4.33963774	      1.97293915	     82.76670543	      1.44455152	     12.51435513	    -18.32469883	     -7.49999987	     48.92555658	     -3.02355791	      6.25664624	     82.11332123	      1.43314782	     12.32555089	     -8.17940340	     -7.49999987	    -37.04464449	      1.27618200	     -3.33891898	     14.70872064	    -11.24521256	     12.83054073	     30.56879010	     84.85252310	      9.25720660	     -8.79735606	      1.72014669	     28.97432988	     70.26631244
      4.11666670	     23.30814932	      0.30206591	      3.72284424	      0.04794496	      0.64952188	     -0.09177604	     47.32774317	     -4.22452354	      2.00292892	     82.51030249	      1.44007645	     12.30809652	    -18.29770320	     -7.49999987	     48.42750051	     -3.02710257	      6.29155921	     81.79066656	      1.42751643	     11.98854478	     -8.36529598	     -7.49999987	    -37.13647988	      1.22520305	     -3.29300305	     14.73616887	    -11.28180853	     13.10591178	     30.42466586	     84.28408165	      9.11368266	     -8.77961672	      1.93477625	     28.69628414	     69.60667770
      4.13333330	     23.48887759	      0.24157891	      3.81479407	      0.04673566	      0.64698040	     -0.09118157	     47.23345694	     -4.25397035	      1.79093078	     82.53709101	      1.44054399	     12.29847373	    -18.32469642	     -7.49999987	     48.41781981	     -3.03811903	      6.48635189	     81.86110431	      1.42874580	     11.98476588	     -8.21638946	     -7.49999987	    -37.31252806	      1.20634716	     -3.22412232	     14.71617794	    -11.34620255	     13.51735046	     30.42162735	     83.54376693	      8.96981001	     -8.84325717	      2.14274678	     28.62792513	     69.04694045
      4.15000000	     23.40069994	      0.23249241	      3.85911751	      0.04704510	      0.64544418	     -0.09141794	     47.51192585	     -4.30454116	      1.77291184	     82.67082462	      1.44287808	     12.28365990	    -18.60267805	     -7.49999987	     48.72596058	     -2.97974572	      6.54954321	     82.08818531	      1.43270911	     11.89328754	     -8.24080172	     -7.49999987	    -37.21586229	      1.13164995	     -3.11890676	     14.21831766	    -11.50769659	     13.48565960	     31.51803429	     82.43734086	      8.47045959	     -8.89760035	      2.16977346	     29.68166039	     68.46354860
